D:\school\WTK\thesis\model\3dpredictsim\Results\batch_windlass\Pog_s1_tmt_bCst_d05_k800_WL20_ig24_act_TTC_GRF.mot
nRows=20
nColumns=19

name D:\school\WTK\thesis\model\3dpredictsim\Results\batch_windlass\Pog_s1_tmt_bCst_d05_k800_WL20_ig24_act_TTC_GRF.mot
datacolumns 19
datarows 20
range 0.6211638404 0.8572060998
endheader
time 	ground_force_vx	ground_force_vy	ground_force_vz	ground_force_px	ground_force_py	ground_force_pz	1_ground_force_vx	1_ground_force_vy	1_ground_force_vz	1_ground_force_px	1_ground_force_py	1_ground_force_pz	ground_torque_x	ground_torque_y	ground_torque_z	1_ground_torque_x	1_ground_torque_y	1_ground_torque_z
        0.6211638404	      119.9931702988	      430.3919763240	       -0.5516353954	        0.4044578929	        0.0000000000	        0.0388466492	      -34.6921324224	       23.2042249719	       -4.3399988716	        0.9484523774	        0.0000000000	       -0.0611303091	        0.0000000000	        0.0000000000	        0.0000000000	        0.0000000000	        0.0000000000	        0.0000000000	
        0.6335871172	       82.1014274496	      325.9667274570	        3.6378484035	        0.4131616594	        0.0000000000	        0.0356314138	      -80.5573668984	       62.3650298744	      -11.9676689779	        0.9643374975	        0.0000000000	       -0.0596802490	        0.0000000000	        0.0000000000	        0.0000000000	        0.0000000000	        0.0000000000	        0.0000000000	
        0.6460103940	       48.1156367870	      225.7095533254	       11.1171456249	        0.4256240816	        0.0000000000	        0.0306545053	     -170.6345205459	      170.5918270306	      -30.2910543112	        0.9776064715	        0.0000000000	       -0.0594043092	        0.0000000000	        0.0000000000	        0.0000000000	        0.0000000000	        0.0000000000	        0.0000000000	
        0.6584336708	       31.1918220257	      179.6178499953	       15.9450448728	        0.4272216833	        0.0000000000	        0.0300138389	     -112.3185942446	      494.4605430258	        5.3164681147	        0.9961293358	        0.0000000000	       -0.0612495298	        0.0000000000	        0.0000000000	        0.0000000000	        0.0000000000	        0.0000000000	        0.0000000000	
        0.6708569476	       20.5859246273	      123.8372823022	       12.7228153074	        0.4272542724	        0.0000000000	        0.0299634917	     -136.0279988466	      806.0647642387	       26.0633057905	        1.0058307311	        0.0000000000	       -0.0623132704	        0.0000000000	        0.0000000000	        0.0000000000	        0.0000000000	        0.0000000000	        0.0000000000	
        0.6832802244	        0.5398877194	       50.7751780289	        7.9510462045	        0.4262133957	        0.0000000000	        0.0302135252	     -179.9147808658	      970.8145067571	       30.1993988755	        1.0168531506	        0.0000000000	       -0.0617788152	        0.0000000000	        0.0000000000	        0.0000000000	        0.0000000000	        0.0000000000	        0.0000000000	
        0.6957035013	        0.2029124296	       -0.2135529017	       -0.0140944857	        0.0000000000	        0.0000000000	        0.0000000000	     -185.7023899534	      992.3563442453	       25.4968687447	        1.0273960421	        0.0000000000	       -0.0604980203	        0.0000000000	        0.0000000000	        0.0000000000	        0.0000000000	        0.0000000000	        0.0000000000	
        0.7081267781	        0.0000670317	       -0.0000608150	       -0.0000008672	        0.0000000000	        0.0000000000	        0.0000000000	     -158.5215435070	      897.1788859082	       21.0690961207	        1.0329825500	        0.0000000000	       -0.0595449046	        0.0000000000	        0.0000000000	        0.0000000000	        0.0000000000	        0.0000000000	        0.0000000000	
        0.7205500549	        0.0000020383	       -0.0000016573	       -0.0000000182	        0.0000000000	        0.0000000000	        0.0000000000	     -130.1847649204	      795.2184574269	       18.3463532811	        1.0369428798	        0.0000000000	       -0.0589930507	        0.0000000000	        0.0000000000	        0.0000000000	        0.0000000000	        0.0000000000	        0.0000000000	
        0.7329733317	        0.0000004724	       -0.0000003554	       -0.0000000099	        0.0000000000	        0.0000000000	        0.0000000000	     -111.5343666833	      731.0796941840	       16.0397095346	        1.0408000269	        0.0000000000	       -0.0586496374	        0.0000000000	        0.0000000000	        0.0000000000	        0.0000000000	        0.0000000000	        0.0000000000	
        0.7453966085	        0.0000011171	       -0.0000008025	       -0.0000000446	        0.0000000000	        0.0000000000	        0.0000000000	      -99.5753839015	      699.4431116950	       17.1554408002	        1.0439909356	        0.0000000000	       -0.0583950165	        0.0000000000	        0.0000000000	        0.0000000000	        0.0000000000	        0.0000000000	        0.0000000000	
        0.7578198853	        0.0000040034	       -0.0000026413	       -0.0000000751	        0.0000000000	        0.0000000000	        0.0000000000	      -87.3212198541	      682.9399077469	       19.6656403536	        1.0465880059	        0.0000000000	       -0.0582454409	        0.0000000000	        0.0000000000	        0.0000000000	        0.0000000000	        0.0000000000	        0.0000000000	
        0.7702431621	       -0.0000029195	        0.0000017438	       -0.0000000401	        0.0000000000	        0.0000000000	        0.0000000000	      -73.5180195125	      663.6135363418	       21.0849048952	        1.0492565308	        0.0000000000	       -0.0581768476	        0.0000000000	        0.0000000000	        0.0000000000	        0.0000000000	        0.0000000000	        0.0000000000	
        0.7826664389	       -0.0002059636	        0.0001131008	       -0.0000072392	        0.0000000000	        0.0000000000	        0.0000000000	      -61.4811541180	      642.0372697239	       21.2148248957	        1.0522358312	        0.0000000000	       -0.0581498898	        0.0000000000	        0.0000000000	        0.0000000000	        0.0000000000	        0.0000000000	        0.0000000000	
        0.7950897157	       -0.0001190849	        0.0000611208	       -0.0000057721	        0.0000000000	        0.0000000000	        0.0000000000	      -50.8430495885	      623.4435185011	       21.5227335299	        1.0559651409	        0.0000000000	       -0.0580802481	        0.0000000000	        0.0000000000	        0.0000000000	        0.0000000000	        0.0000000000	        0.0000000000	
        0.8075129925	       -0.0000888857	        0.0000432224	       -0.0000050271	        0.0000000000	        0.0000000000	        0.0000000000	      -42.8189539087	      609.2871675173	       21.8616927804	        1.0606888868	        0.0000000000	       -0.0578920225	        0.0000000000	        0.0000000000	        0.0000000000	        0.0000000000	        0.0000000000	        0.0000000000	
        0.8199362693	       -0.0000969322	        0.0000451217	       -0.0000058940	        0.0000000000	        0.0000000000	        0.0000000000	      -36.6433480961	      599.1407695367	       22.0444162657	        1.0661313866	        0.0000000000	       -0.0575779731	        0.0000000000	        0.0000000000	        0.0000000000	        0.0000000000	        0.0000000000	        0.0000000000	
        0.8323595461	       -0.0001513821	        0.0000679462	       -0.0000094375	        0.0000000000	        0.0000000000	        0.0000000000	      -31.5765454466	      591.9251314662	       21.6815545481	        1.0719450388	        0.0000000000	       -0.0571686908	        0.0000000000	        0.0000000000	        0.0000000000	        0.0000000000	        0.0000000000	        0.0000000000	
        0.8447828230	       -0.0003215799	        0.0001398153	       -0.0000198164	        0.0000000000	        0.0000000000	        0.0000000000	      -27.7408090598	      587.0646405235	       21.3413109501	        1.0778088524	        0.0000000000	       -0.0566923560	        0.0000000000	        0.0000000000	        0.0000000000	        0.0000000000	        0.0000000000	        0.0000000000	
        0.8572060998	       -0.0008720271	        0.0003685337	       -0.0000522611	        0.0000000000	        0.0000000000	        0.0000000000	      -24.9946442592	      584.5014274690	       21.2141640189	        1.0835545149	        0.0000000000	       -0.0561768028	        0.0000000000	        0.0000000000	        0.0000000000	        0.0000000000	        0.0000000000	        0.0000000000	
